<?xml version="1.0" encoding="UTF-8" standalone="no"?>
<!-- Generator: Adobe Illustrator 24.0.3, SVG Export Plug-In . SVG Version: 6.00 Build 0)  -->

<svg
   version="1.1"
   x="0px"
   y="0px"
   viewBox="0 0 122.34517 90.894779"
   xml:space="preserve"
   id="svg32"
   sodipodi:docname="favicon.svg"
   width="122.34517"
   height="90.894775"
   inkscape:version="1.1.1 (c3084ef, 2021-09-22)"
   xmlns:inkscape="http://www.inkscape.org/namespaces/inkscape"
   xmlns:sodipodi="http://sodipodi.sourceforge.net/DTD/sodipodi-0.dtd"
   xmlns="http://www.w3.org/2000/svg"
   xmlns:svg="http://www.w3.org/2000/svg"><defs
   id="defs36" /><sodipodi:namedview
   id="namedview34"
   pagecolor="#ffffff"
   bordercolor="#999999"
   borderopacity="1"
   inkscape:pageshadow="0"
   inkscape:pageopacity="0"
   inkscape:pagecheckerboard="0"
   showgrid="false"
   fit-margin-top="0"
   fit-margin-left="0"
   fit-margin-right="0"
   fit-margin-bottom="0"
   inkscape:zoom="1.8970482"
   inkscape:cx="60.093359"
   inkscape:cy="45.597154"
   inkscape:window-width="1280"
   inkscape:window-height="755"
   inkscape:window-x="0"
   inkscape:window-y="23"
   inkscape:window-maximized="0"
   inkscape:current-layer="svg32" />
<style
   type="text/css"
   id="style9">
	.st0{display:none;}
	.st1{display:inline;fill:#7575A4;}
	.st2{fill:#FFFFFF;}
	.st3{fill:#7575A4;}
</style>
<g
   id="Capa_3"
   class="st0"
   transform="translate(-79.309628,-93.44889)">
	<rect
   x="-277.79999"
   y="0"
   class="st1"
   width="277.79999"
   height="277.79999"
   id="rect11" />
</g>
<g
   id="Capa_1"
   transform="translate(-79.309628,-93.44889)">
	<g
   id="Capa_2">
	</g>
	<g
   id="g29">
		<g
   id="g19">
			<g
   id="g17">
				<path
   class="st3"
   d="m 83.59,162.51 c 0.01,7.05 0.72,14.05 1.91,20.99 0.09,0.53 0.22,0.99 -0.57,0.8 -1.62,-0.4 -4.77,-2.68 -4.86,-3.4 -1.5,-12.35 -0.85,-24.6 2.57,-36.58 3.42,-11.95 8.58,-23.12 16.3,-32.96 5.04,-6.42 11.08,-11.62 18.7,-14.83 6.06,-2.55 12.37,-3.36 18.9,-3 5.48,0.3 10.79,1.34 15.86,3.43 6.9,2.85 12.75,7.23 17.89,12.57 7.93,8.24 13.55,17.96 18.11,28.35 5.59,12.72 9.29,26.02 12.07,39.59 0.39,1.93 0.73,3.86 1.14,5.79 0.15,0.73 -0.08,0.7 -0.64,0.5 -1.38,-0.49 -2.77,-0.96 -4.17,-1.38 -0.53,-0.16 -0.72,-0.41 -0.78,-0.96 -0.55,-5.04 -1.27,-10.05 -2.14,-15.04 -2.57,-14.79 -6.55,-29.12 -14,-42.3 -4.82,-8.53 -10.87,-15.99 -18.94,-21.67 -9.93,-6.99 -20.84,-8.91 -32.57,-6.03 -10.49,2.58 -19.6,7.64 -26.97,15.63 -6.53,7.09 -10.91,15.42 -13.97,24.5 -2.18,6.49 -3.21,13.2 -3.66,20.01 -0.12,1.99 -0.16,3.99 -0.18,5.99 z"
   id="path15" />
			</g>
		</g>
		<g
   id="g27">
			<path
   class="st3"
   d="m 144.14,132.64 c 0,0 0.55,1.16 3.72,0.22 0,0 3.88,-1.72 3.11,-3.99 0,0 -0.06,-1.36 -1.44,-2.04 h -4.01 c -0.01,0 -2.27,1.82 -1.38,5.81 z"
   id="path21" />
			<path
   class="st3"
   d="m 165.77,171.7 c 0.17,0.03 0.5,0.02 0.75,0.02 0.16,-0.01 0.32,-0.05 0.47,-0.12 0.38,-0.18 1.61,-0.34 2.23,-0.41 0.24,-0.03 0.47,-0.1 0.68,-0.21 0.92,-0.48 3.18,-1.55 4.08,-1.98 0.2,-0.1 0.41,-0.18 0.62,-0.26 0.76,-0.29 1.35,-1.05 1.61,-1.42 0.1,-0.14 0.16,-0.3 0.17,-0.47 0.47,-4.26 -2.25,-4.85 -2.25,-4.85 -2.06,-0.66 -4.79,0.03 -6.06,0.42 -0.41,0.13 -0.84,0.24 -1.26,0.31 -3.07,0.52 -2.72,2.87 -2.77,5.86 -0.04,3.16 1.73,3.11 1.73,3.11 z"
   id="path23" />
			<path
   class="st3"
   d="m 189.89,178.72 c -0.45,0.13 -0.92,0.19 -1.39,0.18 -1.5,-0.02 -5.07,-0.35 -10.6,-2.43 0,0 -6.91,-4.58 -15.14,-3 0,0 -2.25,0.58 -3.91,-1.21 -1.66,-1.79 -0.75,-3.62 0,-4.29 0,0 1.01,-1.84 3.25,-2.68 0,0 0.16,-0.24 -1.01,-1.23 0,0 -0.42,-0.42 -0.08,-1.33 0.33,-0.92 1.58,-6.07 3.08,-6.74 0,0 -5.33,-17.31 -13.31,-15.98 0,0 -3,-4.66 -7.57,-5.66 0,0 -3.74,-1.58 -1.75,-5.41 0,0 0.66,-1.06 1.22,-1.46 0.11,-0.08 0.15,-0.22 0.11,-0.34 -0.06,-0.19 -0.1,-0.48 -0.01,-0.81 0.16,-0.57 2.99,-6.07 2.99,-6.07 l 0.08,-7.26 c 0,-0.42 -0.06,-0.84 -0.19,-1.24 -0.44,-1.39 -1.52,-4.65 -2.11,-5.11 0,0 -1.33,-0.33 -1.75,-0.33 0,0 2.75,4.41 0.75,8.82 0,0 -2.83,9.07 -5.24,9.65 0,0 -0.83,0 -1.08,0.17 0,0 -0.25,0.42 -0.92,0.42 0,0 -2,-1.08 -2.25,-2.33 0,0 -0.08,-0.58 0.33,-0.75 0,0 0.75,-1.33 -2.58,-5.08 0,0 0.08,-5.82 -4.74,-10.9 0,0 -1.33,-3.25 -1.33,-3.99 0,0 -1.36,-1.8 -1.89,-2.86 l -1.32,0.32 c 0.12,0.92 1.33,4.41 1.33,4.41 1.12,1.79 1.58,3.83 1.58,3.83 1.79,5.33 0.08,9.57 0.08,9.57 1.54,1.21 3.83,6.82 4.2,8.86 0.37,2.04 -0.29,1.46 -0.29,1.46 0,0 -2,-0.96 -3.25,-0.75 -1.25,0.21 -4.2,-1.04 -4.2,-1.04 -1.6,-0.16 -3.77,-2.16 -4.74,-3.13 -0.29,-0.29 -0.7,-0.42 -1.1,-0.36 -0.92,0.15 -2.23,0.04 -2.23,0.04 -2.56,-0.45 -6.2,-2.94 -6.88,-3.42 -0.08,-0.05 -0.17,-0.07 -0.26,-0.06 -0.99,0.18 -1.22,0.98 -1.22,0.98 0.67,2.16 4.58,3.66 4.58,3.66 1.29,3.09 3.39,2.54 3.86,2.37 0.05,-0.02 0.11,0.01 0.12,0.07 1.15,4.23 4.22,4.72 4.22,4.72 1.46,0.58 2.84,1.29 2.84,1.29 1.3,0.5 1.86,1.46 1.86,1.46 0,0 3.37,2.08 5.2,1.66 1.83,-0.42 6.45,-1.08 6.45,-1.08 7.78,1.46 6.86,4.16 6.86,4.16 10.11,1.16 14.77,8.78 14.77,8.78 l -1.71,11.57 c -0.75,2.91 -3.49,5.16 -3.49,5.16 0,0 -2.95,2.16 -5.99,2.37 -3.04,0.21 -2.95,-1.46 -2.95,-1.46 -1.04,-3.25 -1.29,-3.91 -1.29,-3.91 -1.91,-1.04 -4.49,-1.96 -4.49,-1.96 -4.12,-1.08 -4.7,-4.29 -4.7,-4.29 -3.95,-5.33 -15.06,-9.15 -15.06,-9.15 0.21,-0.46 -0.75,-3 -0.75,-3 -1.33,-0.12 -6.03,-1.46 -6.03,-1.46 0.46,4.29 4.04,5.33 4.04,5.33 2.7,4.33 5.91,5.45 5.91,5.45 2.7,4.37 3.74,9.4 3.74,9.4 3.87,0.83 4.66,4.62 4.66,4.62 6.86,4.7 6.62,6.32 6.62,6.32 -25.67,0.04 -27.96,-1.66 -27.96,-1.66 -3.49,1.66 -10.4,1.29 -10.4,1.29 -9.15,-1.08 -10.32,-0.21 -10.32,-0.21 0,0 0.13,2.85 1.71,3.74 v 0.01 c 0.06,0.01 5.73,1.11 8.07,2.49 0.33,0.19 0.7,0.3 1.08,0.3 v 0 c 0,0 0.01,0 0.01,0 v 0 c 0,0 -0.01,0 -0.01,0 h 1.06 c 0.06,0 1.43,0.03 2.14,-0.42 0.12,-0.08 0.27,-0.12 0.42,-0.13 l 0.46,-0.02 c 0.19,-0.01 0.39,0.05 0.54,0.17 0.92,0.7 4.33,2.99 9.62,3.27 5.57,0.3 11.76,-0.51 12.94,-0.67 0.15,-0.02 0.3,0 0.44,0.06 0.68,0.29 2.42,0.96 4.73,1.4 0.04,0.01 0.08,0.01 0.11,0.02 1.21,0.22 2.56,0.38 4.01,0.38 3.23,0 6.87,-0.77 10.18,-3.3 0.22,-0.17 0.49,-0.24 0.76,-0.22 3.67,0.32 22.38,1.86 29.76,0.18 0.15,-0.03 0.3,-0.08 0.44,-0.12 l 0.06,-0.02 c 0.1,-0.03 0.29,-0.06 0.59,-0.02 0.17,0.02 0.35,0.06 0.54,0.13 0.9,0.32 4.13,1.4 7.77,1.99 4.74,0.76 8.16,0.37 10.17,-1.16 l -0.14,-0.19 c 0,0 0,0 0.01,0 l 0.15,0.19 c -0.5,0.38 -1.09,0.7 -1.77,0.94 0.68,-0.24 1.27,-0.55 1.77,-0.94 1,-1 1.13,-2.76 1.13,-2.76 0,0 -0.17,0.67 -4,1.74 z m -61.55,3.15 c 0.04,0.01 0.07,0.01 0.11,0.02 -0.03,0 -0.07,-0.01 -0.11,-0.02 z"
   id="path25" />
		</g>
	</g>
</g>
</svg>
