<?xml version="1.0" encoding="UTF-8" standalone="no"?>
<!-- Generator: Adobe Illustrator 24.0.3, SVG Export Plug-In . SVG Version: 6.00 Build 0)  -->

<svg
   version="1.1"
   x="0px"
   y="0px"
   viewBox="0 0 210.61421 47.903701"
   xml:space="preserve"
   id="svg222"
   sodipodi:docname="modificado-08.svg"
   width="210.6142"
   height="47.903702"
   inkscape:version="1.1.1 (c3084ef, 2021-09-22)"
   xmlns:inkscape="http://www.inkscape.org/namespaces/inkscape"
   xmlns:sodipodi="http://sodipodi.sourceforge.net/DTD/sodipodi-0.dtd"
   xmlns="http://www.w3.org/2000/svg"
   xmlns:svg="http://www.w3.org/2000/svg"><defs
   id="defs226" /><sodipodi:namedview
   id="namedview224"
   pagecolor="#ffffff"
   bordercolor="#666666"
   borderopacity="1.0"
   inkscape:pageshadow="2"
   inkscape:pageopacity="0.0"
   inkscape:pagecheckerboard="0"
   showgrid="false"
   fit-margin-top="0"
   fit-margin-left="0"
   fit-margin-right="0"
   fit-margin-bottom="0"
   inkscape:zoom="3.9992802"
   inkscape:cx="25.254544"
   inkscape:cy="24.129342"
   inkscape:window-width="1280"
   inkscape:window-height="755"
   inkscape:window-x="0"
   inkscape:window-y="30"
   inkscape:window-maximized="0"
   inkscape:current-layer="svg222" />
<style
   type="text/css"
   id="style113">
	.st0{fill:#7575A4;}
	.st1{fill:#FFFFFF;}
</style>

<g
   id="Capa_1"
   transform="translate(-34.256164,-38.256884)">
	<g
   id="Capa_2">
	</g>
	<g
   id="g219">
		<g
   id="g137">
			<path
   class="st1"
   d="m 118.52,49.17 v 3.91 h -8.33 v 4.94 h 7.72 v 3.72 h -7.72 v 4.88 h 8.33 v 3.91 H 105.76 V 49.17 Z"
   id="path119" />
			<path
   class="st1"
   d="m 124.99,49.17 v 21.36 h -4.03 V 49.17 Z"
   id="path121" />
			<path
   class="st1"
   d="m 139.18,70.53 h -4.24 V 49.17 h 4.42 l 7.48,15.38 7.42,-15.38 h 4.46 v 21.36 h -4.24 V 58.05 l -5.98,12.48 h -3.23 L 139.2,58.05 v 12.48 z"
   id="path123" />
			<path
   class="st1"
   d="m 161.28,59.72 c 0.31,-0.98 0.75,-1.83 1.34,-2.55 0.59,-0.72 1.31,-1.29 2.15,-1.71 0.84,-0.42 1.82,-0.63 2.91,-0.63 1.16,0 2.14,0.26 2.93,0.78 0.79,0.52 1.39,1.21 1.8,2.09 v -2.44 h 4.03 v 15.26 h -4.03 v -2.47 c -0.41,0.87 -1,1.57 -1.77,2.08 -0.77,0.51 -1.76,0.76 -2.96,0.76 -1.1,0 -2.07,-0.21 -2.91,-0.63 -0.84,-0.42 -1.56,-0.99 -2.15,-1.71 -0.59,-0.72 -1.04,-1.57 -1.34,-2.55 -0.31,-0.98 -0.46,-2.02 -0.46,-3.14 0,-1.11 0.15,-2.16 0.46,-3.14 z m 3.6,4.87 c 0.2,0.52 0.48,0.97 0.84,1.34 0.36,0.38 0.77,0.67 1.24,0.88 0.47,0.21 0.98,0.32 1.53,0.32 1.12,0 2.04,-0.39 2.78,-1.16 0.73,-0.77 1.12,-1.77 1.16,-2.99 0,-0.65 -0.1,-1.25 -0.31,-1.79 -0.2,-0.54 -0.48,-1 -0.82,-1.39 -0.35,-0.39 -0.76,-0.69 -1.25,-0.9 -0.49,-0.21 -1.01,-0.32 -1.56,-0.32 -0.55,0 -1.06,0.1 -1.53,0.31 -0.47,0.2 -0.88,0.49 -1.24,0.87 -0.36,0.38 -0.64,0.83 -0.84,1.36 -0.2,0.53 -0.31,1.11 -0.31,1.74 0,0.64 0.1,1.21 0.31,1.73 z"
   id="path125" />
			<path
   class="st1"
   d="m 178.68,71.2 c 0.41,0 0.74,-0.12 0.99,-0.35 0.25,-0.23 0.38,-0.65 0.38,-1.24 V 55.27 h 4.03 v 15.14 c 0,0.98 -0.14,1.78 -0.43,2.4 -0.28,0.62 -0.66,1.11 -1.11,1.46 -0.46,0.36 -0.98,0.6 -1.57,0.73 -0.59,0.13 -1.19,0.2 -1.8,0.2 h -2.32 v -4 z m 5.4,-23.1 v 4.58 h -4.03 V 48.1 Z"
   id="path127" />
			<path
   class="st1"
   d="m 192,66.27 c 0.62,0.58 1.48,0.87 2.58,0.87 0.47,0 0.9,-0.07 1.28,-0.21 0.39,-0.14 0.73,-0.32 1.04,-0.53 0.31,-0.21 0.56,-0.44 0.78,-0.69 0.21,-0.24 0.39,-0.47 0.53,-0.67 v -9.77 h 4.06 v 15.26 h -4.06 v -1.65 c -0.18,0.2 -0.41,0.42 -0.69,0.66 -0.27,0.23 -0.6,0.45 -0.98,0.66 -0.38,0.2 -0.8,0.37 -1.27,0.5 -0.47,0.13 -0.99,0.2 -1.56,0.2 -2.16,0 -3.81,-0.66 -4.96,-1.97 -1.15,-1.31 -1.72,-3.14 -1.72,-5.48 v -8.18 h 4.03 v 8.18 c 0.01,1.3 0.32,2.24 0.94,2.82 z"
   id="path129" />
			<path
   class="st1"
   d="m 217.39,69.17 c -0.38,0.34 -0.81,0.64 -1.3,0.9 -0.49,0.27 -1.05,0.47 -1.68,0.61 -0.63,0.14 -1.36,0.21 -2.2,0.21 -1.1,0 -2.12,-0.21 -3.07,-0.63 -0.95,-0.42 -1.78,-0.99 -2.49,-1.71 -0.71,-0.72 -1.27,-1.57 -1.68,-2.55 -0.41,-0.98 -0.61,-2.02 -0.61,-3.14 0,-1.12 0.2,-2.17 0.61,-3.14 0.41,-0.98 0.97,-1.83 1.68,-2.55 0.71,-0.72 1.54,-1.29 2.49,-1.71 0.95,-0.42 1.97,-0.63 3.07,-0.63 0.98,0 1.89,0.16 2.75,0.49 0.85,0.33 1.62,0.79 2.29,1.39 0.67,0.6 1.22,1.33 1.65,2.18 0.43,0.85 0.7,1.81 0.82,2.87 h -0.03 v 2.35 h -11.63 c 0.22,1.02 0.7,1.88 1.42,2.58 0.72,0.7 1.63,1.05 2.73,1.05 1.08,0 1.94,-0.19 2.59,-0.58 0.65,-0.39 1.18,-0.8 1.59,-1.25 l 2.04,2.14 c -0.31,0.41 -0.66,0.78 -1.04,1.12 z m -7.93,-10.12 c -0.72,0.71 -1.19,1.57 -1.39,2.56 h 8.27 c -0.06,-0.49 -0.19,-0.95 -0.4,-1.39 -0.2,-0.44 -0.48,-0.82 -0.82,-1.16 -0.35,-0.34 -0.76,-0.6 -1.25,-0.79 -0.49,-0.19 -1.04,-0.29 -1.65,-0.29 -1.12,0.01 -2.04,0.36 -2.76,1.07 z"
   id="path131" />
			<path
   class="st1"
   d="m 225.8,49.17 v 21.36 h -4.03 V 49.17 Z"
   id="path133" />
			<path
   class="st1"
   d="m 228.52,59.72 c 0.39,-0.98 0.92,-1.83 1.62,-2.55 0.69,-0.72 1.5,-1.29 2.43,-1.71 0.93,-0.42 1.94,-0.63 3.04,-0.63 1.1,0 2.12,0.21 3.05,0.63 0.94,0.42 1.75,0.99 2.43,1.71 0.68,0.72 1.22,1.57 1.62,2.55 0.4,0.98 0.6,2.02 0.6,3.14 0,1.12 -0.19,2.17 -0.58,3.14 -0.39,0.98 -0.92,1.83 -1.6,2.55 -0.68,0.72 -1.49,1.29 -2.43,1.71 -0.94,0.42 -1.96,0.63 -3.08,0.63 -1.1,0 -2.11,-0.21 -3.04,-0.63 -0.93,-0.42 -1.73,-0.99 -2.43,-1.71 -0.7,-0.72 -1.23,-1.57 -1.62,-2.55 -0.39,-0.98 -0.58,-2.02 -0.58,-3.14 -0.01,-1.11 0.18,-2.16 0.57,-3.14 z m 3.47,4.87 c 0.2,0.52 0.48,0.97 0.84,1.34 0.36,0.38 0.77,0.67 1.24,0.88 0.47,0.21 0.98,0.32 1.53,0.32 0.57,0 1.09,-0.11 1.57,-0.32 0.48,-0.21 0.89,-0.51 1.24,-0.88 0.35,-0.37 0.62,-0.82 0.82,-1.34 0.2,-0.52 0.31,-1.09 0.31,-1.72 0,-0.63 -0.1,-1.21 -0.31,-1.74 -0.2,-0.53 -0.48,-0.98 -0.84,-1.36 -0.36,-0.38 -0.77,-0.67 -1.25,-0.87 -0.48,-0.2 -0.99,-0.31 -1.54,-0.31 -0.55,0 -1.06,0.1 -1.53,0.31 -0.47,0.2 -0.88,0.49 -1.24,0.87 -0.36,0.38 -0.64,0.83 -0.84,1.36 -0.2,0.53 -0.31,1.11 -0.31,1.74 0.01,0.63 0.11,1.2 0.31,1.72 z"
   id="path135" />
		</g>
		<g
   id="g201">
			<g
   id="g199">
				<path
   class="st1"
   d="m 107.32,76.37 v 6.54 h -0.67 v -6.54 z"
   id="path139" />
				<path
   class="st1"
   d="m 108.95,79.38 c 0,-0.41 0,-0.82 -0.01,-1.19 h 0.61 c 0.02,0.15 0.03,0.71 0.02,0.84 0.2,-0.45 0.58,-0.95 1.53,-0.95 0.86,0 1.58,0.5 1.58,1.78 v 3.04 h -0.63 v -2.96 c 0,-0.78 -0.32,-1.3 -1.09,-1.3 -1.02,0 -1.39,0.82 -1.39,1.81 v 2.45 h -0.63 v -3.52 z"
   id="path141" />
				<path
   class="st1"
   d="m 114.34,81.58 c 0.15,0.57 0.56,0.91 1.25,0.91 0.77,0 1.08,-0.35 1.08,-0.83 0,-0.49 -0.22,-0.73 -1.21,-0.97 -1.28,-0.31 -1.57,-0.7 -1.57,-1.33 0,-0.66 0.49,-1.29 1.62,-1.29 1.13,0 1.64,0.67 1.71,1.34 h -0.62 c -0.08,-0.35 -0.35,-0.81 -1.12,-0.81 -0.75,0 -0.96,0.37 -0.96,0.71 0,0.4 0.21,0.59 1.11,0.81 1.38,0.33 1.68,0.78 1.68,1.49 0,0.84 -0.68,1.41 -1.75,1.41 -1.14,0 -1.74,-0.59 -1.87,-1.44 z"
   id="path143" />
				<path
   class="st1"
   d="m 117.78,78.19 h 0.85 v -1.43 h 0.63 v 1.43 h 1.08 v 0.54 h -1.08 v 2.93 c 0,0.5 0.11,0.77 0.55,0.77 0.13,0 0.31,-0.01 0.45,-0.05 v 0.5 c -0.18,0.07 -0.43,0.09 -0.64,0.09 -0.66,0 -1,-0.34 -1,-1.1 v -3.13 h -0.85 v -0.55 z"
   id="path145" />
				<path
   class="st1"
   d="m 121.27,76.01 h 0.63 v 0.96 h -0.63 z m 0,2.18 h 0.63 v 4.71 h -0.63 z"
   id="path147" />
				<path
   class="st1"
   d="m 122.72,78.19 h 0.85 v -1.43 h 0.63 v 1.43 h 1.08 v 0.54 h -1.08 v 2.93 c 0,0.5 0.11,0.77 0.55,0.77 0.13,0 0.31,-0.01 0.45,-0.05 v 0.5 c -0.18,0.07 -0.43,0.09 -0.64,0.09 -0.66,0 -1,-0.34 -1,-1.1 v -3.13 h -0.85 v -0.55 z"
   id="path149" />
				<path
   class="st1"
   d="m 129.85,81.53 c 0,0.46 0.01,1.15 0.01,1.38 h -0.61 c -0.02,-0.12 -0.03,-0.42 -0.03,-0.77 -0.21,0.54 -0.68,0.88 -1.48,0.88 -0.73,0 -1.55,-0.32 -1.55,-1.71 V 78.2 h 0.62 v 2.97 c 0,0.66 0.21,1.28 1.07,1.28 0.97,0 1.34,-0.54 1.34,-1.81 V 78.2 h 0.63 z"
   id="path151" />
				<path
   class="st1"
   d="m 130.66,78.19 h 0.85 v -1.43 h 0.63 v 1.43 h 1.08 v 0.54 h -1.08 v 2.93 c 0,0.5 0.11,0.77 0.55,0.77 0.13,0 0.31,-0.01 0.45,-0.05 v 0.5 c -0.18,0.07 -0.43,0.09 -0.64,0.09 -0.66,0 -1,-0.34 -1,-1.1 v -3.13 h -0.85 v -0.55 z"
   id="path153" />
				<path
   class="st1"
   d="m 138.08,80.54 c 0,1.33 -0.75,2.48 -2.17,2.48 -1.31,0 -2.11,-1.05 -2.11,-2.47 0,-1.37 0.77,-2.47 2.16,-2.47 1.27,0 2.12,0.98 2.12,2.46 z m -3.63,0.01 c 0,1.08 0.56,1.92 1.49,1.92 0.95,0 1.48,-0.78 1.48,-1.92 0,-1.09 -0.53,-1.92 -1.5,-1.92 -0.99,0 -1.47,0.81 -1.47,1.92 z"
   id="path155" />
				<path
   class="st1"
   d="m 145.37,76.01 v 5.55 c 0,0.45 0,0.88 0.01,1.35 h -0.6 c -0.02,-0.12 -0.03,-0.52 -0.03,-0.74 -0.23,0.54 -0.74,0.85 -1.54,0.85 -1.22,0 -1.96,-0.99 -1.96,-2.42 0,-1.45 0.8,-2.52 2.09,-2.52 0.89,0 1.27,0.38 1.4,0.66 v -2.72 h 0.63 z m -3.47,4.57 c 0,1.22 0.61,1.88 1.39,1.88 1.18,0 1.47,-0.84 1.47,-2.01 0,-1.14 -0.26,-1.82 -1.4,-1.82 -0.88,0.01 -1.46,0.71 -1.46,1.95 z"
   id="path157" />
				<path
   class="st1"
   d="m 147.11,80.65 c 0.01,1.1 0.56,1.82 1.42,1.82 0.82,0 1.1,-0.45 1.26,-0.81 h 0.63 c -0.19,0.61 -0.69,1.37 -1.91,1.37 -1.46,0 -2.03,-1.22 -2.03,-2.43 0,-1.37 0.69,-2.51 2.09,-2.51 1.48,0 1.96,1.24 1.96,2.18 0,0.14 0,0.26 -0.01,0.39 h -3.41 z m 2.77,-0.49 c -0.01,-0.86 -0.46,-1.55 -1.33,-1.55 -0.91,0 -1.31,0.63 -1.41,1.55 z"
   id="path159" />
				<path
   class="st1"
   d="m 158.15,79.76 h -3.3 v 2.55 h 3.62 l -0.09,0.59 h -4.19 v -6.54 h 4.12 v 0.59 h -3.46 v 2.21 h 3.3 z"
   id="path161" />
				<path
   class="st1"
   d="m 163.32,76.01 v 5.55 c 0,0.45 0,0.88 0.01,1.35 h -0.6 c -0.02,-0.12 -0.03,-0.52 -0.03,-0.74 -0.23,0.54 -0.74,0.85 -1.54,0.85 -1.22,0 -1.96,-0.99 -1.96,-2.42 0,-1.45 0.8,-2.52 2.09,-2.52 0.89,0 1.27,0.38 1.4,0.66 v -2.72 h 0.63 z m -3.46,4.57 c 0,1.22 0.61,1.88 1.39,1.88 1.18,0 1.47,-0.84 1.47,-2.01 0,-1.14 -0.26,-1.82 -1.4,-1.82 -0.89,0.01 -1.46,0.71 -1.46,1.95 z"
   id="path163" />
				<path
   class="st1"
   d="m 168.44,81.53 c 0,0.46 0.01,1.15 0.01,1.38 h -0.61 c -0.02,-0.12 -0.03,-0.42 -0.03,-0.77 -0.21,0.54 -0.68,0.88 -1.48,0.88 -0.73,0 -1.55,-0.32 -1.55,-1.71 V 78.2 h 0.62 v 2.97 c 0,0.66 0.21,1.28 1.07,1.28 0.97,0 1.34,-0.54 1.34,-1.81 V 78.2 h 0.63 z"
   id="path165" />
				<path
   class="st1"
   d="m 173.49,81.49 c -0.21,0.82 -0.76,1.52 -1.88,1.52 -1.23,0 -2.06,-0.9 -2.06,-2.45 0,-1.31 0.72,-2.49 2.11,-2.49 1.27,0 1.75,0.9 1.83,1.54 h -0.63 c -0.13,-0.52 -0.46,-0.99 -1.21,-0.99 -0.92,0 -1.45,0.79 -1.45,1.92 0,1.1 0.5,1.92 1.41,1.92 0.64,0 1.03,-0.33 1.25,-0.97 z"
   id="path167" />
				<path
   class="st1"
   d="m 177.9,81.95 c 0,0.42 0.04,0.81 0.07,0.96 h -0.6 c -0.04,-0.11 -0.07,-0.32 -0.08,-0.68 -0.16,0.33 -0.56,0.79 -1.5,0.79 -1.1,0 -1.58,-0.71 -1.58,-1.43 0,-1.04 0.81,-1.52 2.22,-1.52 0.37,0 0.67,0 0.85,0 v -0.44 c 0,-0.45 -0.14,-1.02 -1.12,-1.02 -0.88,0 -1.01,0.45 -1.11,0.83 h -0.62 c 0.06,-0.58 0.42,-1.36 1.74,-1.36 1.11,0 1.73,0.46 1.73,1.51 z m -0.62,-1.4 c -0.17,0 -0.57,0 -0.85,0 -1,0 -1.58,0.27 -1.58,1.01 0,0.55 0.38,0.93 1.01,0.93 1.25,0 1.42,-0.84 1.42,-1.78 z"
   id="path169" />
				<path
   class="st1"
   d="m 182.96,81.49 c -0.21,0.82 -0.76,1.52 -1.88,1.52 -1.23,0 -2.06,-0.9 -2.06,-2.45 0,-1.31 0.72,-2.49 2.11,-2.49 1.27,0 1.75,0.9 1.83,1.54 h -0.63 c -0.13,-0.52 -0.46,-0.99 -1.21,-0.99 -0.92,0 -1.45,0.79 -1.45,1.92 0,1.1 0.5,1.92 1.41,1.92 0.64,0 1.03,-0.33 1.25,-0.97 z"
   id="path171" />
				<path
   class="st1"
   d="m 184.01,76.01 h 0.63 v 0.96 h -0.63 z m 0,2.18 h 0.63 v 4.71 h -0.63 z"
   id="path173" />
				<path
   class="st1"
   d="m 190.04,80.54 c 0,1.33 -0.75,2.48 -2.17,2.48 -1.31,0 -2.11,-1.05 -2.11,-2.47 0,-1.37 0.77,-2.47 2.16,-2.47 1.28,0 2.12,0.98 2.12,2.46 z m -3.63,0.01 c 0,1.08 0.56,1.92 1.49,1.92 0.95,0 1.48,-0.78 1.48,-1.92 0,-1.09 -0.53,-1.92 -1.5,-1.92 -0.98,0 -1.47,0.81 -1.47,1.92 z m 3.01,-4.63 -1.41,1.46 h -0.63 l 1.25,-1.46 z"
   id="path175" />
				<path
   class="st1"
   d="m 191.15,79.38 c 0,-0.41 0,-0.82 -0.01,-1.19 h 0.61 c 0.02,0.15 0.03,0.71 0.02,0.84 0.2,-0.45 0.58,-0.95 1.53,-0.95 0.86,0 1.58,0.5 1.58,1.78 v 3.04 h -0.63 v -2.96 c 0,-0.78 -0.32,-1.3 -1.09,-1.3 -1.02,0 -1.39,0.82 -1.39,1.81 v 2.45 h -0.63 v -3.52 z"
   id="path177" />
				<path
   class="st1"
   d="m 199.13,81.12 c 0.19,0.83 0.75,1.3 1.76,1.3 1.12,0 1.55,-0.54 1.55,-1.21 0,-0.7 -0.32,-1.12 -1.71,-1.46 -1.45,-0.36 -2.02,-0.84 -2.02,-1.78 0,-0.91 0.67,-1.71 2.09,-1.71 1.49,0 2.12,0.89 2.2,1.71 h -0.69 c -0.13,-0.65 -0.55,-1.14 -1.54,-1.14 -0.88,0 -1.36,0.4 -1.36,1.08 0,0.67 0.4,0.93 1.58,1.22 1.85,0.46 2.15,1.19 2.15,2 0,1 -0.74,1.83 -2.29,1.83 -1.64,0 -2.29,-0.93 -2.42,-1.86 h 0.7 z"
   id="path179" />
				<path
   class="st1"
   d="m 204.63,80.65 c 0.01,1.1 0.56,1.82 1.42,1.82 0.82,0 1.1,-0.45 1.26,-0.81 h 0.63 c -0.19,0.61 -0.69,1.37 -1.91,1.37 -1.46,0 -2.03,-1.22 -2.03,-2.43 0,-1.37 0.69,-2.51 2.09,-2.51 1.48,0 1.96,1.24 1.96,2.18 0,0.14 0,0.26 -0.01,0.39 h -3.41 z m 2.77,-0.49 c -0.01,-0.86 -0.46,-1.55 -1.33,-1.55 -0.91,0 -1.31,0.63 -1.41,1.55 z"
   id="path181" />
				<path
   class="st1"
   d="m 212.73,81.49 c -0.21,0.82 -0.76,1.52 -1.88,1.52 -1.23,0 -2.06,-0.9 -2.06,-2.45 0,-1.31 0.72,-2.49 2.11,-2.49 1.27,0 1.75,0.9 1.83,1.54 h -0.63 c -0.13,-0.52 -0.46,-0.99 -1.21,-0.99 -0.92,0 -1.45,0.79 -1.45,1.92 0,1.1 0.5,1.92 1.41,1.92 0.64,0 1.03,-0.33 1.25,-0.97 z"
   id="path183" />
				<path
   class="st1"
   d="m 217.42,81.53 c 0,0.46 0.01,1.15 0.01,1.38 h -0.61 c -0.02,-0.12 -0.03,-0.42 -0.03,-0.77 -0.21,0.54 -0.68,0.88 -1.48,0.88 -0.73,0 -1.55,-0.32 -1.55,-1.71 V 78.2 h 0.62 v 2.97 c 0,0.66 0.21,1.28 1.07,1.28 0.97,0 1.34,-0.54 1.34,-1.81 V 78.2 h 0.63 z"
   id="path185" />
				<path
   class="st1"
   d="m 218.89,79.38 c 0,-0.41 0,-0.82 -0.01,-1.19 h 0.61 c 0.02,0.15 0.03,0.71 0.02,0.84 0.2,-0.45 0.58,-0.95 1.53,-0.95 0.86,0 1.58,0.5 1.58,1.78 V 82.9 H 222 v -2.96 c 0,-0.78 -0.32,-1.3 -1.09,-1.3 -1.02,0 -1.39,0.82 -1.39,1.81 v 2.45 h -0.63 z"
   id="path187" />
				<path
   class="st1"
   d="m 227.87,76.01 v 5.55 c 0,0.45 0,0.88 0.01,1.35 h -0.6 c -0.02,-0.12 -0.03,-0.52 -0.03,-0.74 -0.23,0.54 -0.74,0.85 -1.54,0.85 -1.22,0 -1.96,-0.99 -1.96,-2.42 0,-1.45 0.8,-2.52 2.09,-2.52 0.89,0 1.27,0.38 1.4,0.66 v -2.72 h 0.63 z m -3.47,4.57 c 0,1.22 0.61,1.88 1.39,1.88 1.18,0 1.47,-0.84 1.47,-2.01 0,-1.14 -0.26,-1.82 -1.4,-1.82 -0.88,0.01 -1.46,0.71 -1.46,1.95 z"
   id="path189" />
				<path
   class="st1"
   d="m 232.7,81.95 c 0,0.42 0.04,0.81 0.07,0.96 h -0.6 c -0.04,-0.11 -0.07,-0.32 -0.08,-0.68 -0.16,0.33 -0.56,0.79 -1.5,0.79 -1.1,0 -1.58,-0.71 -1.58,-1.43 0,-1.04 0.81,-1.52 2.22,-1.52 0.36,0 0.67,0 0.85,0 v -0.44 c 0,-0.45 -0.14,-1.02 -1.12,-1.02 -0.88,0 -1.01,0.45 -1.11,0.83 h -0.62 c 0.06,-0.58 0.42,-1.36 1.74,-1.36 1.11,0 1.73,0.46 1.73,1.51 z m -0.62,-1.4 c -0.17,0 -0.57,0 -0.85,0 -1,0 -1.58,0.27 -1.58,1.01 0,0.55 0.38,0.93 1.01,0.93 1.25,0 1.42,-0.84 1.42,-1.78 z"
   id="path191" />
				<path
   class="st1"
   d="m 234.18,79.47 c 0,-0.73 -0.01,-1.08 -0.01,-1.28 h 0.62 c 0.01,0.14 0.02,0.48 0.02,1.01 0.26,-0.68 0.85,-1.09 1.62,-1.13 v 0.65 c -0.97,0.05 -1.62,0.65 -1.62,1.8 v 2.38 h -0.63 z"
   id="path193" />
				<path
   class="st1"
   d="m 237.34,76.01 h 0.63 v 0.96 h -0.63 z m 0,2.18 h 0.63 v 4.71 h -0.63 z"
   id="path195" />
				<path
   class="st1"
   d="m 242.8,81.95 c 0,0.42 0.04,0.81 0.07,0.96 h -0.6 c -0.04,-0.11 -0.07,-0.32 -0.08,-0.68 -0.16,0.33 -0.56,0.79 -1.5,0.79 -1.1,0 -1.58,-0.71 -1.58,-1.43 0,-1.04 0.81,-1.52 2.22,-1.52 0.37,0 0.67,0 0.85,0 v -0.44 c 0,-0.45 -0.14,-1.02 -1.12,-1.02 -0.88,0 -1.01,0.45 -1.11,0.83 h -0.62 c 0.06,-0.58 0.42,-1.36 1.74,-1.36 1.11,0 1.73,0.46 1.73,1.51 z m -0.61,-1.4 c -0.17,0 -0.57,0 -0.85,0 -1,0 -1.58,0.27 -1.58,1.01 0,0.55 0.38,0.93 1.01,0.93 1.25,0 1.42,-0.84 1.42,-1.78 z"
   id="path197" />
			</g>
		</g>
		<g
   id="g217">
			<g
   id="g207">
				<g
   id="g205">
					<path
   class="st1"
   d="m 37.03,74.48 c 0.01,3.62 0.37,7.21 0.98,10.77 0.05,0.27 0.11,0.51 -0.29,0.41 -0.83,-0.2 -2.45,-1.38 -2.49,-1.74 -0.77,-6.34 -0.44,-12.62 1.32,-18.77 1.75,-6.13 4.4,-11.86 8.36,-16.91 2.58,-3.29 5.69,-5.96 9.6,-7.61 3.11,-1.31 6.35,-1.72 9.7,-1.54 2.81,0.15 5.54,0.69 8.14,1.76 3.54,1.46 6.54,3.71 9.18,6.45 4.07,4.23 6.95,9.22 9.29,14.55 2.87,6.53 4.77,13.35 6.19,20.32 0.2,0.99 0.38,1.98 0.58,2.97 0.08,0.37 -0.04,0.36 -0.33,0.26 -0.71,-0.25 -1.42,-0.49 -2.14,-0.71 -0.27,-0.08 -0.37,-0.21 -0.4,-0.49 -0.28,-2.58 -0.65,-5.16 -1.1,-7.72 C 92.3,68.89 90.26,61.54 86.44,54.78 83.97,50.4 80.86,46.57 76.72,43.66 71.63,40.08 66.03,39.09 60.01,40.56 c -5.38,1.32 -10.06,3.92 -13.84,8.02 -3.35,3.64 -5.6,7.91 -7.17,12.57 -1.12,3.33 -1.65,6.77 -1.88,10.27 -0.05,1 -0.07,2.03 -0.09,3.06 z"
   id="path203" />
				</g>
			</g>
			<g
   id="g215">
				<path
   class="st1"
   d="m 68.11,59.15 c 0,0 0.28,0.6 1.91,0.11 0,0 1.99,-0.88 1.59,-2.05 0,0 -0.03,-0.7 -0.74,-1.05 h -2.06 c 0,0.01 -1.16,0.94 -0.7,2.99 z"
   id="path209" />
				<path
   class="st1"
   d="m 79.21,79.19 c 0.09,0.01 0.26,0.01 0.39,0.01 0.08,0 0.17,-0.03 0.24,-0.06 0.2,-0.09 0.83,-0.17 1.15,-0.21 0.12,-0.01 0.24,-0.05 0.35,-0.11 0.47,-0.25 1.63,-0.8 2.09,-1.02 0.1,-0.05 0.21,-0.09 0.32,-0.13 0.39,-0.15 0.69,-0.54 0.83,-0.73 0.05,-0.07 0.08,-0.16 0.09,-0.24 0.24,-2.19 -1.15,-2.49 -1.15,-2.49 -1.06,-0.34 -2.46,0.01 -3.11,0.22 -0.21,0.07 -0.43,0.12 -0.65,0.16 -1.57,0.27 -1.4,1.47 -1.42,3.01 -0.04,1.62 0.87,1.59 0.87,1.59 z"
   id="path211" />
				<path
   class="st1"
   d="m 91.58,82.8 c -0.23,0.07 -0.47,0.1 -0.71,0.09 -0.77,-0.01 -2.6,-0.18 -5.44,-1.25 0,0 -3.54,-2.35 -7.77,-1.54 0,0 -1.15,0.3 -2.01,-0.62 -0.85,-0.92 -0.38,-1.86 0,-2.2 0,0 0.52,-0.95 1.67,-1.37 0,0 0.08,-0.12 -0.52,-0.63 0,0 -0.21,-0.21 -0.04,-0.68 0.17,-0.47 0.81,-3.12 1.58,-3.46 0,0 -2.73,-8.88 -6.83,-8.2 0,0 -1.54,-2.39 -3.89,-2.9 0,0 -1.92,-0.81 -0.9,-2.78 0,0 0.34,-0.54 0.62,-0.75 0.05,-0.04 0.08,-0.11 0.06,-0.18 -0.03,-0.1 -0.05,-0.25 -0.01,-0.41 0.08,-0.29 1.53,-3.12 1.53,-3.12 l 0.04,-3.72 c 0,-0.22 -0.03,-0.43 -0.1,-0.64 -0.22,-0.71 -0.78,-2.39 -1.08,-2.62 0,0 -0.68,-0.17 -0.9,-0.17 0,0 1.41,2.26 0.38,4.53 0,0 -1.45,4.65 -2.69,4.95 0,0 -0.43,0 -0.56,0.09 0,0 -0.13,0.21 -0.47,0.21 0,0 -1.02,-0.56 -1.15,-1.2 0,0 -0.04,-0.3 0.17,-0.38 0,0 0.38,-0.68 -1.32,-2.6 0,0 0.04,-2.99 -2.43,-5.59 0,0 -0.68,-1.67 -0.68,-2.05 0,0 -0.7,-0.93 -0.97,-1.47 L 56.5,42.3 c 0.06,0.47 0.68,2.26 0.68,2.26 0.58,0.92 0.81,1.96 0.81,1.96 0.92,2.73 0.04,4.91 0.04,4.91 0.79,0.62 1.96,3.5 2.16,4.55 0.19,1.05 -0.15,0.75 -0.15,0.75 0,0 -1.02,-0.49 -1.67,-0.38 -0.64,0.11 -2.16,-0.53 -2.16,-0.53 -0.82,-0.08 -1.93,-1.11 -2.43,-1.61 -0.15,-0.15 -0.36,-0.22 -0.57,-0.18 -0.47,0.07 -1.15,0.02 -1.15,0.02 -1.31,-0.23 -3.18,-1.51 -3.53,-1.75 -0.04,-0.03 -0.09,-0.04 -0.14,-0.03 -0.51,0.09 -0.63,0.5 -0.63,0.5 0.34,1.11 2.35,1.88 2.35,1.88 0.66,1.59 1.74,1.3 1.98,1.21 0.03,-0.01 0.06,0.01 0.06,0.03 0.59,2.17 2.16,2.42 2.16,2.42 0.75,0.3 1.46,0.66 1.46,0.66 0.67,0.26 0.96,0.75 0.96,0.75 0,0 1.73,1.07 2.67,0.85 0.94,-0.21 3.31,-0.56 3.31,-0.56 3.99,0.75 3.52,2.13 3.52,2.13 5.19,0.6 7.58,4.5 7.58,4.5 l -0.88,5.93 c -0.38,1.49 -1.79,2.65 -1.79,2.65 0,0 -1.52,1.11 -3.07,1.22 -1.56,0.11 -1.52,-0.75 -1.52,-0.75 -0.53,-1.67 -0.66,-2.01 -0.66,-2.01 -0.98,-0.53 -2.31,-1 -2.31,-1 -2.11,-0.56 -2.41,-2.2 -2.41,-2.2 -2.03,-2.73 -7.73,-4.7 -7.73,-4.7 0.11,-0.23 -0.38,-1.54 -0.38,-1.54 -0.68,-0.06 -3.1,-0.75 -3.1,-0.75 0.23,2.2 2.07,2.73 2.07,2.73 1.39,2.22 3.03,2.8 3.03,2.8 1.39,2.24 1.92,4.82 1.92,4.82 1.99,0.43 2.39,2.37 2.39,2.37 3.52,2.41 3.39,3.24 3.39,3.24 -13.17,0.02 -14.35,-0.85 -14.35,-0.85 -1.79,0.85 -5.34,0.66 -5.34,0.66 -4.7,-0.56 -5.29,-0.11 -5.29,-0.11 0,0 0.07,1.46 0.88,1.92 v 0 c 0.03,0.01 2.94,0.57 4.14,1.28 0.17,0.1 0.36,0.15 0.56,0.15 v 0 c 0,0 0,0 0,0 v 0 c 0,0 0,0 0,0 h 0.54 c 0.03,0 0.74,0.02 1.1,-0.22 0.06,-0.04 0.14,-0.06 0.21,-0.07 l 0.24,-0.01 c 0.1,0 0.2,0.03 0.28,0.09 0.47,0.36 2.22,1.53 4.94,1.68 2.86,0.15 6.03,-0.26 6.64,-0.34 0.08,-0.01 0.16,0 0.23,0.03 0.35,0.15 1.24,0.49 2.43,0.72 0.02,0 0.04,0.01 0.06,0.01 0.62,0.11 1.31,0.19 2.06,0.19 1.66,0 3.53,-0.4 5.23,-1.69 0.11,-0.08 0.25,-0.13 0.39,-0.11 1.89,0.17 11.48,0.95 15.27,0.09 0.08,-0.02 0.15,-0.04 0.22,-0.06 l 0.03,-0.01 c 0.05,-0.02 0.15,-0.03 0.3,-0.01 0.09,0.01 0.18,0.03 0.28,0.07 0.46,0.16 2.12,0.72 3.99,1.02 2.43,0.39 4.19,0.19 5.22,-0.6 l -0.07,-0.1 c 0,0 0,0 0,0 l 0.08,0.1 c -0.26,0.2 -0.56,0.36 -0.91,0.48 0.35,-0.12 0.65,-0.28 0.91,-0.48 0.51,-0.51 0.58,-1.42 0.58,-1.42 0,0 -0.06,0.39 -2.03,0.94 z M 60,84.42 c 0.02,0 0.04,0.01 0.06,0.01 C 60.04,84.42 60.02,84.42 60,84.42 Z"
   id="path213" />
			</g>
		</g>
	</g>
</g>
</svg>
